<svg width="24" height="24" viewBox="0 0 24 24" fill="none" xmlns="http://www.w3.org/2000/svg">
<path d="M14.8449 19.8282C15.2979 19.4097 15.7783 18.9288 16.2603 18.3862C17.4435 17.0539 18.387 15.6266 19.0644 14.144C19.9141 12.2842 20.3449 10.3331 20.3449 8.34483C20.3449 3.74348 16.6014 0 12 0C7.39868 0 3.65515 3.74348 3.65515 8.34483C3.65515 10.2044 4.09524 12.0827 4.96307 13.9278C5.0464 14.1049 5.25758 14.181 5.43473 14.0976C5.61188 14.0143 5.68793 13.8031 5.6046 13.626C4.78143 11.8761 4.36408 10.0993 4.36408 8.34483C4.36413 4.13441 7.78957 0.708975 12 0.708975C16.2104 0.708975 19.6359 4.13441 19.6359 8.34483C19.6359 10.2264 19.2285 12.0743 18.425 13.8373C17.7794 15.2538 16.8777 16.6203 15.745 17.8987C14.1665 19.6801 12.5686 20.7965 12.0188 21.1561C11.2479 20.5558 8.30868 18.1533 6.31026 14.9453C6.2068 14.7792 5.98811 14.7284 5.82197 14.8319C5.65579 14.9354 5.60498 15.154 5.70853 15.3202C6.83212 17.1239 8.21665 18.6603 9.38131 19.7917C8.13233 19.9082 7.01352 20.1109 6.17778 20.3757C4.99899 20.7492 4.40047 21.2347 4.39891 21.8186C4.39707 22.499 5.20015 23.0467 6.7858 23.4464C8.18083 23.7981 10.0305 23.9947 11.9943 23.9999C12.0209 23.9999 12.0472 24 12.0738 24C14.0078 24 15.8277 23.8136 17.2057 23.4739C18.7934 23.0825 19.5994 22.5391 19.6012 21.8587C19.6046 20.5336 16.5521 20.0146 14.8449 19.8282ZM17.0359 22.7856C15.6936 23.1165 13.9049 23.2962 11.9962 23.291C10.0886 23.286 8.2997 23.097 6.95917 22.7591C5.43945 22.3759 5.10756 21.9517 5.10794 21.8207C5.10888 21.4661 6.61219 20.6783 10.0786 20.4469C11.0349 21.3161 11.7264 21.8267 11.7908 21.8738C11.8528 21.9192 11.9264 21.9422 12.0001 21.9422C12.0626 21.9422 12.1253 21.9257 12.1813 21.8924C12.2336 21.8613 13.032 21.3818 14.1155 20.4712C17.7597 20.7603 18.893 21.5865 18.8923 21.857C18.8918 21.988 18.5577 22.4105 17.0359 22.7856Z" fill="white"/>
<path d="M12 5.44022C13.2782 5.44022 14.3801 6.30654 14.6798 7.54697C14.7257 7.73725 14.9172 7.85428 15.1076 7.80829C15.2978 7.76231 15.4149 7.57079 15.3689 7.38045C14.9921 5.82061 13.6068 4.7312 12 4.7312C10.0891 4.7312 8.53432 6.28589 8.53432 8.19691C8.53432 10.1079 10.0891 11.6626 12 11.6626C13.5757 11.6626 14.9545 10.5992 15.353 9.07656C15.4025 8.88716 15.2892 8.69343 15.0998 8.64389C14.9103 8.59426 14.7166 8.70765 14.6671 8.89709C14.3502 10.1079 13.2535 10.9536 12 10.9536C10.48 10.9536 9.24329 9.71695 9.24329 8.19691C9.24329 6.67686 10.48 5.44022 12 5.44022Z" fill="white"/>
</svg>
