<svg width="24" height="24" viewBox="0 0 24 24" fill="none" xmlns="http://www.w3.org/2000/svg">
<path d="M20.0769 6H3.9231C3.41537 6 3 6.41537 3 6.92306V17.0769C3 17.5846 3.41537 18 3.9231 18H20.0769C20.5846 18 21 17.5847 21 17.0769V6.92306C21 6.41537 20.5846 6 20.0769 6ZM19.7305 6.69226L12.531 12.0923C12.4016 12.1908 12.2029 12.2525 12 12.2516C11.7971 12.2525 11.5985 12.1908 11.469 12.0923L4.26946 6.69226H19.7305ZM15.8848 12.4486L19.8079 17.2948C19.8118 17.2997 19.8166 17.3034 19.8208 17.3078H4.17921C4.18336 17.3032 4.18821 17.2997 4.19215 17.2948L8.11524 12.4486C8.23544 12.3 8.21266 12.0822 8.06377 11.9617C7.91516 11.8415 7.6973 11.8643 7.57707 12.0129L3.6923 16.8118V7.12497L11.0538 12.6461C11.3305 12.8522 11.6672 12.9429 11.9999 12.9438C12.3322 12.9431 12.6692 12.8524 12.9461 12.6461L20.3076 7.12497V16.8117L16.4229 12.0129C16.3027 11.8643 16.0846 11.8415 15.9362 11.9617C15.7874 12.0819 15.7645 12.3 15.8848 12.4486Z" fill="#35251F"/>
</svg>
