
<svg width="633" height="658" viewBox="0 0 633 658" fill="none" xmlns="http://www.w3.org/2000/svg">
<path d="M598.488 433.735C584.191 422.424 567.942 420.426 550.644 423.322C537.631 425.91 525.01 430.165 513.094 435.983C506.438 438.976 499.842 442.098 492.967 445.277C492.271 443.981 491.537 442.839 491.017 441.613C471.837 396.362 430.051 297.556 429.703 296.695C420.236 273.966 410.773 251.239 401.312 228.513C386.659 193.513 371.998 158.524 357.329 123.546C350.222 106.582 343.087 89.6326 336.092 72.6276C335.708 71.247 334.843 70.0481 333.65 69.2467C332.458 68.4453 331.018 68.094 329.589 68.256C326.834 68.3856 324.066 68.256 321.307 68.256C315.793 68.256 315.31 68.5798 313.336 73.6175C300.144 107.264 286.971 140.913 273.816 174.565C272.915 176.878 271.986 177.341 269.39 176.966C260.292 175.435 251.081 174.68 241.854 174.709C113.109 181.273 106.963 322.032 113.16 356.319C118.098 383.562 126.798 408.32 144.676 429.507C150.181 436.034 156.526 441.863 162.731 448.27C157.883 457.016 152.166 465.256 145.666 472.866C137 484.119 124.942 492.311 111.26 496.241C107.275 497.263 103.159 497.8 99.0948 498.512C98.0153 498.555 96.9945 499.013 96.2463 499.789C95.4981 500.565 95.0807 501.599 95.0816 502.675C95.0692 503.211 95.1639 503.743 95.3601 504.242C95.5564 504.74 95.8502 505.195 96.2245 505.58C96.5989 505.964 97.0462 506.27 97.5406 506.481C98.035 506.692 98.5664 506.802 99.1041 506.806C100.159 506.915 101.221 506.952 102.281 506.917H233.544C234.499 506.951 235.454 506.926 236.406 506.843C238.919 506.534 240.67 505.261 240.628 502.578C240.636 501.503 240.219 500.467 239.467 499.694C238.716 498.922 237.69 498.474 236.61 498.447C233.163 497.874 229.694 497.351 226.307 496.509C218.775 494.991 211.734 491.648 205.808 486.776C199.881 481.903 195.252 475.651 192.329 468.573C191.916 467.601 191.679 466.556 191.201 465.029C192.594 465.492 193.277 465.714 193.95 465.987C214.281 474.548 236.53 477.581 258.423 474.776C285.888 471.838 311.146 458.427 328.901 437.352C349.117 413.297 358.1 385.699 352.503 354.247C351.38 349.276 350.008 344.365 348.392 339.532L347.333 339.601C342.298 375.471 324.925 403.472 292.522 420.227C260.118 436.982 226.953 434.22 193.486 420.306C197.978 408.431 204.861 338.704 222.41 328.443C225.573 326.593 229.294 330.594 232.982 330.604C277.048 330.705 321.12 330.705 365.198 330.604C366.706 330.435 368.225 330.809 369.481 331.657C370.737 332.505 371.648 333.772 372.049 335.23C379.945 354.733 388.079 374.12 395.943 393.623C401.624 407.728 407.225 421.878 412.419 436.182C415.65 444.53 416.541 453.597 414.997 462.411C413.72 469.719 410.356 476.505 405.308 481.959C400.26 487.413 393.742 491.303 386.532 493.164C377.848 495.498 369.01 497.222 360.083 498.322C357.296 498.785 355.61 499.914 355.531 502.583C355.448 505.419 357.468 506.695 360.088 506.853C362.708 507.01 365.393 506.917 368.05 506.917C373.949 506.917 379.843 506.917 386.704 506.917C385.055 508.055 384.256 508.675 383.392 509.193C371.213 516.507 359.182 524.084 346.794 531.033C333.43 538.527 320.517 546.853 305.723 551.711C276.582 561.812 246.535 569.108 215.996 573.499C190.627 576.995 164.865 576.516 139.646 572.079C114.431 567.789 90.5712 557.691 69.9707 542.588C40.3913 520.536 25.9036 491.767 32.0722 454.45C34.5841 437.197 43.4829 421.504 57.0204 410.452C57.9521 409.779 58.923 409.161 59.9282 408.602C58.7902 407.991 58.6044 407.802 58.4418 407.825C57.8161 407.895 57.1955 408.004 56.5838 408.153C45.5485 410.762 35.5065 416.494 27.6687 424.659C1.53594 451.744 -5.67311 484.162 4.2997 519.611C15.1272 558.118 42.5838 582.649 78.1552 598.659C108.609 611.856 142.152 616.342 175.022 611.612C202.352 608.226 228.821 599.854 253.104 586.914C253.889 586.503 254.609 585.989 255.362 585.494C255.106 585.374 254.828 585.307 254.545 585.298C254.263 585.288 253.981 585.336 253.718 585.438C233.853 592.231 213.287 596.785 192.404 599.016C175.394 600.793 158.237 600.638 141.262 598.553C121.32 596.167 101.962 590.269 84.0915 581.136C75.7533 577.059 67.9835 571.918 60.978 565.843C61.8466 566.384 62.6827 566.995 63.5931 567.462C72.6898 572.659 82.0512 577.382 91.6396 581.613C127.462 595.491 164.566 597.244 202.191 591.239C232.644 586.065 262.258 576.824 290.232 563.766C324.959 547.635 358.657 529.393 391.135 509.143C393.545 507.625 396.348 506.84 399.199 506.885C453.038 506.95 506.879 506.959 560.724 506.913C574.984 507.021 588.797 501.955 599.579 492.66C604.11 489.144 607.757 484.626 610.23 479.464C612.704 474.301 613.937 468.636 613.831 462.916C613.725 457.197 612.283 451.581 609.62 446.513C606.957 441.444 603.146 437.063 598.488 433.716V433.735ZM287.654 176.416C289.582 171.396 291.37 166.313 293.572 161.404C294.185 160.017 295.894 156.08 297.288 155.927C298.365 155.807 300.233 159.859 300.781 161.155C306.308 174.269 311.641 187.462 316.843 200.198C307.116 192.961 296.767 186.593 285.917 181.166C286.307 180.093 286.962 178.243 287.663 176.416H287.654ZM255.223 450.694C246.32 452.321 237.217 452.562 228.24 451.406C216.11 450.182 204.261 446.996 193.161 441.974C188.98 440.077 188.98 440.1 190.583 435.294C210.275 446.305 232.658 451.638 255.223 450.694ZM180.303 411.29C180.229 411.47 180.034 411.604 179.644 412.039C159.296 397.894 142.94 378.779 132.144 356.527L131.275 356.939C132.901 361.593 134.374 366.307 136.176 370.886C143.861 390.825 156.336 408.584 172.509 422.609C174.962 424.733 174.92 425.385 171.487 429.807C165.3 423.794 158.76 418.21 153.153 411.817C135.364 391.656 124.223 366.539 121.238 339.865C116.421 300.151 135.488 169.306 265.98 182.152C267.399 182.416 268.796 182.784 270.161 183.253C269.696 184.585 269.432 185.566 269.065 186.523C263.398 200.989 184.725 400.548 180.303 411.29ZM358.049 316.971C338.317 316.971 260.221 316.971 240.907 316.971C235.37 316.971 234.125 315.12 236.15 309.884L283.264 187.869C284.542 188.411 285.587 188.795 286.609 189.29C300.104 195.806 312.254 204.783 322.431 215.755C323.216 216.583 360.594 306.886 362.206 310.902C363.818 314.917 362.392 316.971 358.049 316.971ZM597.35 484.519C592.37 489.774 586.148 493.703 579.251 495.946C572.353 498.19 565.002 498.676 557.867 497.36C551.278 496.361 544.744 495.032 538.289 493.377C527.674 490.429 518.241 484.269 511.297 475.748C504.984 468.088 499.666 459.668 495.467 450.684C495.736 450.391 496.038 450.128 496.368 449.902C514.423 441.525 532.311 432.657 552.242 429.372C559.418 427.846 566.84 427.883 574.001 429.48C581.161 431.077 587.89 434.196 593.727 438.624C597.372 441.127 600.41 444.408 602.62 448.228C604.83 452.048 606.156 456.312 606.501 460.707C606.846 465.103 606.202 469.52 604.616 473.636C603.03 477.752 600.541 481.463 597.331 484.5" fill="white"/>
<path d="M237.99 514.481C231.533 516.058 225.183 518.04 218.978 520.416C218.239 520.698 217.519 520.989 216.79 521.304C202.952 527.393 190.685 536.537 180.917 548.042C180.299 548.727 179.765 549.43 179.114 550.119C176.722 552.894 174.469 555.67 172.398 558.265C166.264 565.068 159.087 570.861 151.133 575.428C153.502 577.723 155.535 580.339 157.171 583.199C162.766 581.104 168.634 579.819 174.595 579.383C173.768 580.141 172.857 580.808 171.975 581.501C174.27 581.183 176.584 581.021 178.901 581.016C184.178 580.233 189.551 580.368 194.782 581.414C217.714 582.982 241.478 577.347 267.012 555.467C292.387 533.725 308.352 524.935 316.713 524.431C316.713 524.431 269.441 507.491 238.008 514.462L237.99 514.481ZM260.481 547.903C229.712 574.271 203.013 573.554 183.183 569.983C180.737 569.554 178.258 569.344 175.775 569.354C177.359 567.83 178.848 566.211 180.234 564.506L180.508 564.168C192.12 549.716 206.599 531.731 240.21 524.2C253.936 521.123 272.414 523.423 287.854 526.749C278.313 533.249 269.172 540.313 260.481 547.903Z" fill="white"/>
<path d="M281.053 592.119C247.066 586.952 211.434 596.874 188.757 604.868C181.265 608.103 172.829 608.433 165.105 605.793C166.168 605.58 167.209 605.224 168.273 604.998C165.936 604.901 163.608 604.649 161.305 604.244C158.109 607.073 154.646 609.588 150.965 611.756C154.221 612.777 157.353 614.156 160.302 615.869C173.981 624.01 206.659 665.149 250.438 656.225C299.15 646.298 319.495 615.919 343.468 619.68C325.222 605.577 303.798 596.117 281.053 592.119Z" fill="white"/>
<path d="M254.247 355.68C233.345 369.045 218.764 391.369 210.301 406.487C207.795 411.809 203.381 416.005 197.927 418.251C198.391 417.631 198.795 416.942 199.264 416.313C197.951 417.37 196.569 418.339 195.126 419.213C194.751 422.268 194.081 425.28 193.124 428.206C195.378 427.209 197.736 426.468 200.156 425.995C211.481 423.908 248.929 430.672 268.396 405.011C290.056 376.455 286.511 350.309 301.324 340.942C284.662 341.971 268.503 347.029 254.247 355.68Z" fill="white"/>
<path d="M347.96 482.048C323.75 480.027 300.901 467.37 286.646 458.164C282.034 454.708 276.292 453.092 270.546 453.636C271.238 453.959 271.898 454.376 272.59 454.704C270.971 454.386 269.332 454.179 267.685 454.084C265.955 451.615 263.99 449.318 261.818 447.224C264.225 447.057 266.606 446.623 268.916 445.929C279.66 442.575 308.914 419.658 337.527 432.976C369.364 447.779 378.324 471.991 395.422 473.333C380.551 480.041 364.261 483.036 347.965 482.057" fill="white"/>
<path d="M580.869 223.855C559.883 246.554 549.385 278.076 543.969 298.98C542.635 306.189 538.64 312.64 532.77 317.063C551.406 272.218 553.78 222.311 539.487 175.911C555.196 154.202 564.105 127.801 555.591 89.4522C547.941 55.0027 547.695 35.7911 551.411 27.7604C551.411 27.7604 511.803 63.1582 502.638 95.8592C501.835 98.7458 501.161 101.54 500.585 104.274C482.279 82.1894 451.158 51.3944 425.178 36.8319C419.668 33.6901 414.489 30.0047 409.72 25.8314C390.921 9.6405 393.527 7.27201 390.396 0C388.459 11.2793 387.358 22.6854 387.103 34.1257C371.432 30.5304 355.402 28.7209 339.32 28.7318C286.962 28.8098 236.529 48.4034 197.949 83.6558C159.369 118.908 135.436 167.266 130.862 219.21C134.452 215.779 138.35 212.682 142.507 209.958C146.389 182.509 156.005 156.175 170.735 132.654C185.466 109.134 204.984 88.9505 228.03 73.4052C251.075 57.86 277.137 47.2985 304.534 42.4022C331.931 37.5058 360.054 38.3834 387.089 44.9782C387.152 60.6701 389.848 76.2413 395.065 91.0482C407.973 124.577 457.354 144.987 467.527 154.424C477.699 163.861 500.697 218.475 507.474 233.31C514.251 248.146 526.434 273.769 518.306 322.989C518.306 322.989 510.298 338.38 508.152 341.419L508.277 341.47C500.34 354.185 490.991 365.971 480.407 376.604C482.001 372.401 483.273 368.083 484.211 363.688C493.113 354.221 500.176 343.193 505.044 331.163C511.217 317.138 512.987 301.582 510.121 286.537C506.726 272.867 499.631 260.387 489.609 250.454C484.8 245.599 479.693 241.046 474.318 236.821C468.829 232.484 463.595 227.837 458.641 222.902L451.72 215.764L449.639 225.479C446.387 240.633 449.225 259.391 458.311 282.84C459.704 286.421 461.154 289.983 462.617 293.554C468.251 305.783 472.338 318.662 474.782 331.894C476.84 344.179 475.881 356.778 471.988 368.614C468.095 380.45 461.383 391.172 452.426 399.863L452.5 399.937C450.312 401.455 448.018 402.815 445.765 404.24C447.115 407.696 448.136 411.27 448.817 414.916C479.875 395.859 505.441 369.108 523.02 337.274C527.061 332.362 532.152 328.411 537.922 325.709C550.928 319.626 598.246 315.995 613.593 278.922C630.668 237.663 618.104 207.22 633 191.274C613.222 197.754 595.328 208.939 580.869 223.859V223.855ZM472.399 289.58C470.959 286.074 469.529 282.568 468.163 279.047C462.579 265.977 459.451 251.997 458.933 237.802C461.804 240.319 464.693 242.687 467.531 245.014C472.564 248.969 477.351 253.225 481.866 257.759C490.55 266.302 496.725 277.046 499.721 288.831C502.056 301.796 500.473 315.159 495.174 327.227C492.761 333.165 489.758 338.848 486.209 344.19C486.208 339.597 485.885 335.009 485.243 330.46C482.679 316.361 478.365 302.633 472.399 289.594V289.58ZM515.574 227.953C515.574 227.953 515.361 227.542 514.966 226.765C513.206 223.304 507.534 212.359 500.808 197.801C492.447 179.677 478.865 156.876 476.152 146.56C473.83 137.65 478.14 108.965 464.586 83.4431C477.119 93.6339 488.373 105.292 498.105 118.166L498.569 117.819C496.131 144.58 504.357 163.551 510.846 178.733C517.465 194.207 517.237 223.203 515.584 227.953H515.574ZM522.914 181.171C522.274 178.935 521.498 176.74 520.591 174.598L520.405 174.177C512.699 156.135 503.103 133.7 512.88 98.7087C516.875 84.4238 528.279 68.4133 539.129 55.7382C540.436 67.8549 542.473 79.8825 545.228 91.7559C554.518 133.533 540.467 157.972 527.196 174.598C525.567 176.656 524.128 178.856 522.895 181.171H522.914ZM527.754 260.992C527.312 257.897 526.922 254.867 526.555 251.87C523.072 223.235 525.06 200.734 531.693 187.277C540.97 222.873 540.148 260.334 529.319 295.492C529.983 283.969 529.458 272.409 527.754 260.992Z" fill="white"/>
<path d="M570.168 497.846C564.116 498.038 558.062 497.531 552.126 496.338C547.481 495.509 542.836 494.607 538.308 493.377C527.693 490.427 518.261 484.267 511.315 475.747C506.923 470.399 503.062 464.639 499.787 458.548C498.661 456.842 497.679 455.045 496.851 453.177C496.424 452.331 495.922 451.535 495.49 450.679C495.574 450.605 495.597 450.596 495.667 450.527C495.007 448.638 494.487 446.704 494.11 444.74L492.949 445.276C492.252 443.981 491.518 442.838 490.998 441.608C471.819 396.361 430.037 297.555 429.684 296.695C420.218 273.966 410.754 251.239 401.294 228.513C386.653 193.513 371.998 158.524 357.329 123.545C350.222 106.582 343.088 89.6323 336.092 72.6273C335.71 71.2459 334.844 70.0459 333.652 69.2436C332.46 68.4413 331.019 68.0893 329.589 68.2511C326.835 68.3853 324.066 68.2743 321.307 68.2789C315.794 68.2789 315.311 68.6027 313.336 73.6404C300.145 107.28 286.97 140.93 273.812 174.588C272.916 176.901 269.441 185.57 269.074 186.518C263.403 200.988 184.726 400.548 180.304 411.289C180.229 411.47 152.22 465.085 145.666 472.861C137.002 484.114 124.946 492.306 111.265 496.236C107.275 497.263 103.16 497.795 99.0951 498.512C98.0156 498.555 96.9948 499.012 96.2466 499.789C95.4984 500.565 95.081 501.599 95.0819 502.675C95.0695 503.21 95.1642 503.743 95.3605 504.241C95.5567 504.74 95.8505 505.195 96.2248 505.579C96.5992 505.964 97.0465 506.27 97.5409 506.481C98.0353 506.691 98.5667 506.802 99.1044 506.806C100.16 506.913 101.221 506.95 102.282 506.917H233.545C234.501 506.949 235.458 506.923 236.411 506.839C238.923 506.533 240.67 505.261 240.628 502.578C240.636 501.502 240.219 500.467 239.468 499.694C238.716 498.921 237.69 498.474 236.61 498.447C233.164 497.873 229.694 497.346 226.308 496.509C212.865 493.169 201.819 487.215 192.33 468.573C189.119 452.594 189.513 436.105 193.481 420.296C198.001 404.813 221.263 348.779 226.21 335.289C226.555 333.812 227.438 332.514 228.688 331.647C229.938 330.78 231.467 330.405 232.978 330.594C277.05 330.696 321.121 330.696 365.193 330.594C366.701 330.425 368.221 330.798 369.477 331.646C370.734 332.494 371.644 333.762 372.044 335.22C379.941 354.723 388.074 374.106 395.938 393.613C401.619 407.718 407.221 421.869 412.414 436.172C415.646 444.521 416.537 453.587 414.992 462.401C413.716 469.709 410.352 476.496 405.304 481.95C400.256 487.404 393.737 491.294 386.528 493.155C377.844 495.49 369.006 497.215 360.079 498.317C357.292 498.78 355.606 499.909 355.527 502.573C355.443 505.409 357.468 506.69 360.084 506.843C360.669 506.88 361.259 506.843 361.844 506.843H448.213C485.708 506.868 523.2 506.868 560.692 506.843C573.319 507.024 585.656 503.062 595.799 495.57C595.799 495.57 593.439 498.84 570.168 497.781V497.846ZM358.049 316.906C338.317 316.906 260.221 316.906 240.907 316.906C235.37 316.906 234.125 315.055 236.15 309.823C244.098 289.238 286.962 178.178 287.663 176.351C289.591 171.327 291.379 166.247 293.581 161.339C294.194 159.952 294.682 158.235 297.297 158.226C299.466 158.226 300.251 159.794 300.8 161.09C306.327 174.2 360.613 306.807 362.225 310.837C363.837 314.866 362.411 316.901 358.068 316.906" fill="white"/>
</svg>
