<svg width="24" height="24" viewBox="0 0 24 24" fill="none" xmlns="http://www.w3.org/2000/svg">
<path d="M14 1.19995H10C9.77924 1.19995 9.60004 1.37915 9.60004 1.59994C9.60004 1.82072 9.77924 1.99992 10 1.99992H14C14.2208 1.99992 14.4 1.82072 14.4 1.59994C14.4 1.37915 14.2208 1.19995 14 1.19995Z" fill="#35251F"/>
<path d="M16.8 1.19995H16.4C16.1793 1.19995 16.0001 1.37915 16.0001 1.59994C16.0001 1.82072 16.1793 1.99992 16.4 1.99992H16.8C17.0208 1.99992 17.2 1.82072 17.2 1.59994C17.2 1.37915 17.0208 1.19995 16.8 1.19995Z" fill="#35251F"/>
<path d="M12.4968 20.4H11.5036C10.8952 20.4 10.4 20.8952 10.4 21.5036V21.6968C10.4 22.3052 10.8952 22.8 11.5032 22.8H12.4964C13.1048 22.8 13.6 22.3052 13.6 21.6968V21.5036C13.6 20.8952 13.1048 20.4 12.4968 20.4ZM12.8 21.6968C12.8 21.864 12.664 22 12.4968 22H11.5036C11.336 22 11.2 21.864 11.2 21.6968V21.5036C11.2 21.336 11.336 21.2 11.5036 21.2H12.4964C12.664 21.2 12.8 21.336 12.8 21.5036V21.6968Z" fill="#35251F"/>
<path d="M17.3544 0H6.64601C5.84881 0 5.20001 0.648797 5.20001 1.446V22.554C5.20001 23.3512 5.84881 24 6.64601 24H17.354C18.1512 24 18.8 23.3512 18.8 22.5544V1.446C18.8 0.648797 18.1512 0 17.3544 0ZM18 22.554C18 22.91 17.7104 23.2 17.3544 23.2H6.64601C6.28962 23.2 6.00003 22.91 6.00003 22.5544V1.446C6.00003 1.08998 6.28962 0.800016 6.64601 0.800016H17.354C17.7104 0.800016 18 1.09003 18 1.446V22.554H18Z" fill="#35251F"/>
<path d="M18.4 2.40002H5.60003C5.37925 2.40002 5.20004 2.57923 5.20004 2.80001V19.6C5.20004 19.8208 5.37925 20 5.60003 20H18.4C18.6208 20 18.8 19.8208 18.8 19.6V2.80001C18.8 2.57923 18.6208 2.40002 18.4 2.40002ZM18 19.2H6.00001V3.20004H18V19.2Z" fill="#35251F"/>
</svg>
