<svg width="60" height="60" viewBox="0 0 60 60" fill="none" xmlns="http://www.w3.org/2000/svg">
<g clip-path="url(#clip0_564_583)">
<path d="M29.6158 29.3791L23.1583 35.8545C22.9469 36.0666 22.9472 36.4101 23.1594 36.6219C23.3716 36.8336 23.7153 36.833 23.9269 36.6208L30 30.5309L36.0732 36.6211C36.2848 36.8332 36.6283 36.8338 36.8404 36.6221C36.9468 36.516 37 36.3769 37 36.2378C37 36.099 36.9472 35.9605 36.8415 35.8545L30.3842 29.3791C30.2825 29.2769 30.1442 29.2195 30 29.2195C29.8559 29.2195 29.7177 29.277 29.6158 29.3791Z" fill="#454545"/>
</g>
<g clip-path="url(#clip1_564_583)">
<path d="M29.6158 23.3791L23.1583 29.8545C22.9469 30.0666 22.9472 30.4101 23.1594 30.6219C23.3716 30.8336 23.7153 30.833 23.9269 30.6208L30 24.5309L36.0732 30.6211C36.2848 30.8332 36.6283 30.8338 36.8404 30.6221C36.9468 30.516 37 30.3769 37 30.2378C37 30.099 36.9472 29.9605 36.8415 29.8545L30.3842 23.3791C30.2825 23.2769 30.1442 23.2195 30 23.2195C29.8559 23.2195 29.7177 23.277 29.6158 23.3791Z" fill="#454545"/>
</g>
<defs>
<clipPath id="clip0_564_583">
<rect width="14" height="14" fill="white" transform="translate(23 40) rotate(-90)"/>
</clipPath>
<clipPath id="clip1_564_583">
<rect width="14" height="14" fill="white" transform="translate(23 34) rotate(-90)"/>
</clipPath>
</defs>
</svg>
